<?xml version="1.0" encoding="UTF-8"?>
<svg width="300.67" height="300.67" version="1.1" viewBox="0 0 300.66669 300.66669" xml:space="preserve" xmlns="http://www.w3.org/2000/svg" xmlns:cc="http://creativecommons.org/ns#" xmlns:dc="http://purl.org/dc/elements/1.1/" xmlns:rdf="http://www.w3.org/1999/02/22-rdf-syntax-ns#"><metadata><rdf:RDF><cc:Work rdf:about=""><dc:format>image/svg+xml</dc:format><dc:type rdf:resource="http://purl.org/dc/dcmitype/StillImage"/><dc:title/></cc:Work></rdf:RDF></metadata><g transform="matrix(1.3333 0 0 -1.3333 0 300.67)"><g transform="scale(.1)" fill-rule="evenodd"><path d="m5605.8 4107.1h645.43l-451.33-451.32 454.72-454.72h-648.82c-64.34 0-116.98 52.65-116.98 116.99v672.06c0 64.34 52.64 116.99 116.98 116.99" fill="#4abdc7"/><path d="m6186.6 4107.1h64.63l-451.33-451.32 128.9-128.89-85.12-101.35-243.25 29.95 586.17 651.61" fill="#6bcedf"/><path d="m5799.9 3655.8 454.72-454.72h-648.82c-27.65 0-53.12 9.73-73.19 25.91-10.58 16.91-19.53 38.73-22.4 66.04-10 95.32 225.13 295.64 289.69 362.77" fill="#3475c2"/><path d="m5799.9 3655.8 62.06-62.06c-93.17-67.12-226.58-166.37-278.04-220.21-82.13-85.92-38.2-155.28-37.74-155.98-4.76 2.83-9.29 5.98-13.57 9.44-10.58 16.91-19.53 38.73-22.4 66.04-10 95.32 225.13 295.64 289.69 362.77" fill="#285d99"/><path d="m2250.3 1498v454.78l-675.53 273.67-32.729 13.242v-1023.5l708.26 281.8" fill="#45b883"/><path d="m1540.9 5.6856 33.917 13.776 675.53 273.67v339.87c-225.8 102.43-502.93 231.85-708.35 328.42-0.116-318.56-0.4636-637.15-1.1015-955.74" fill="#e70e85"/><path d="m718.91 5.6856-33.946 13.776-675.51 273.67v1659.6l675.51 273.67 32.729 13.242c0-744.63-0.34787-1489.3 1.2176-2234" fill="#ff204c"/><path d="m718.91 5.6856-33.946 13.776-675.51 273.67v980.65l708.35-346.59c0.11601-307.17 0.46384-614.29 1.1016-921.5" fill="#ff2042"/><path d="m2250.3 1952.7v-566.72l-645.1-263.08-692.99-290.88v581.79l625.5 255.07 712.58 283.83" fill="#4aade5"/><path d="m1605.2 1122.9 645.1-263.04v-566.76l-712.55 283.84-625.53 255.07v581.79l692.99-290.9" fill="#3475c2"/></g></g></svg>